# xmcd
#
# Track frame offsets: 
#        150
#        17237
#        29656
#        41514
#        56568
#        66145
#        78907
#        93595
#        110360
#        124672
#        137609
#        150775
#        169428
#        184321
#        197238
#        211521
#        227975
#        240819
#        261509
#        274566
#
# Disc length: 3825 seconds
#
# Revision: 0
# Processed by: cddbd v1.5.2PL0 Copyright (c) Steve Scherf et al.
# Submitted via: ExactAudioCopy v0.99pb4
#
DISCID=100eef14
DTITLE=Rosetta Hightower - Hightower
DYEAR=1971
DGENRE=Soul
TTITLE0=Why
TTITLE1=True Love Adventures
TTITLE2=My Back Yard
TTITLE3=Michael
TTITLE4=Black Bird
TTITLE5=One Thousand Nine Hundred And Seventy Years
TTITLE6=We've All Been Together From The Start
TTITLE7=The Time Of Year
TTITLE8=Selfish Woman
TTITLE9=What A Day It's Been
TTITLE10=Another Uneventful Day
TTITLE11=Rocking Chair
TTITLE12=One Heart For Sale
TTITLE13=What Do I Do
TTITLE14=The April Fools
TTITLE15=I'll Hold Out My Hand
TTITLE16=Persuader
TTITLE17=Come Together
TTITLE18=Go Pray For Tomorrow
TTITLE19=A Little More Line
EXTD=
EXTT0=
EXTT1=
EXTT2=
EXTT3=
EXTT4=
EXTT5=
EXTT6=
EXTT7=
EXTT8=
EXTT9=
EXTT10=
EXTT11=
EXTT12=
EXTT13=
EXTT14=
EXTT15=
EXTT16=
EXTT17=
EXTT18=
EXTT19=
PLAYORDER=
